# Blender 3.5.1
# www.blender.org
mtllib cannon.mtl
o Cylinder
v -2.545937 1.220284 -1.469897
v 0.866026 1.000000 0.500000
v -2.740865 1.324746 -1.132270
v 0.616026 1.133975 0.933013
v -2.883564 1.610142 -0.885110
v 0.433013 1.500000 1.250000
v -2.935794 2.000000 -0.794643
v 0.366026 2.000000 1.366025
v -2.883563 2.389858 -0.885110
v 0.433013 2.500000 1.250000
v -2.740865 2.675253 -1.132270
v 0.616026 2.866025 0.933013
v -2.545936 2.779716 -1.469897
v 0.866026 3.000000 0.500000
v -2.351007 2.675253 -1.807524
v 1.116026 2.866025 0.066987
v -2.208309 2.389858 -2.054684
v 1.299038 2.500000 -0.250000
v -2.156079 2.000000 -2.145151
v 1.366025 2.000000 -0.366025
v -2.208310 1.610142 -2.054684
v 1.299038 1.500000 -0.250000
v -2.351007 1.324746 -1.807524
v 1.116025 1.133975 0.066987
v 1.400542 0.816102 0.808603
v 1.104568 0.974715 1.321246
v 0.887900 1.408051 1.696527
v 0.808594 2.000000 1.833889
v 0.887900 2.591949 1.696527
v 1.104568 3.025286 1.321246
v 1.400543 3.183898 0.808604
v 1.696517 3.025286 0.295961
v 1.913186 2.591949 -0.079320
v 1.992491 2.000000 -0.216682
v 1.913185 1.408051 -0.079320
v 1.696517 0.974715 0.295961
v 2.100505 1.129315 1.212727
v 1.882833 1.245965 1.589745
v 1.723487 1.564658 1.865740
v 1.665163 2.000000 1.966762
v 1.723488 2.435343 1.865740
v 1.882834 2.754036 1.589745
v 2.100505 2.870685 1.212727
v 2.318177 2.754036 0.835709
v 2.477522 2.435343 0.559713
v 2.535847 2.000000 0.458691
v 2.477522 1.564658 0.559713
v 2.318177 1.245965 0.835709
v -2.880182 1.160613 -1.662873
v -3.090029 1.273069 -1.299407
v -3.243647 1.580306 -1.033332
v -3.299875 2.000000 -0.935943
v -3.243647 2.419693 -1.033332
v -3.090028 2.726931 -1.299407
v -2.880181 2.839387 -1.662873
v -2.670334 2.726931 -2.026339
v -2.516716 2.419693 -2.292414
v -2.460488 2.000000 -2.389804
v -2.516716 1.580306 -2.292414
v -2.670335 1.273069 -2.026339
v -3.140732 1.676558 -1.813302
v -3.221593 1.719891 -1.673248
v -3.280787 1.838279 -1.570721
v -3.302453 2.000000 -1.533193
v -3.280787 2.161721 -1.570721
v -3.221593 2.280108 -1.673248
v -3.140732 2.323442 -1.813302
v -3.059872 2.280108 -1.953357
v -3.000678 2.161721 -2.055884
v -2.979011 2.000000 -2.093411
v -3.000678 1.838279 -2.055884
v -3.059872 1.719891 -1.953357
v -3.140732 1.272037 -1.813302
v -3.322723 1.369566 -1.498085
v -3.455949 1.636019 -1.267330
v -3.504713 2.000000 -1.182868
v -3.455949 2.363981 -1.267330
v -3.322723 2.630434 -1.498085
v -3.140732 2.727962 -1.813302
v -2.958742 2.630434 -2.128519
v -2.825515 2.363981 -2.359274
v -2.776751 2.000000 -2.443736
v -2.825515 1.636019 -2.359274
v -2.958742 1.369566 -2.128519
v 0.136241 1.000000 1.764025
v -0.004189 1.000000 2.007257
v -0.117412 0.292893 1.617578
v -0.257842 0.292893 1.860810
v -0.729785 0.000000 1.264025
v -0.870215 0.000000 1.507257
v -1.342158 0.292893 0.910471
v -1.482587 0.292893 1.153703
v -1.595810 1.000000 0.764025
v -1.736240 1.000000 1.007257
v -1.342157 1.707107 0.910472
v -1.482587 1.707107 1.153703
v -0.729785 2.000000 1.264025
v -0.870215 2.000000 1.507257
v -0.117412 1.707107 1.617578
v -0.257842 1.707107 1.860810
v 1.736240 1.000000 -1.007257
v 1.595810 1.000000 -0.764025
v 1.482587 0.292893 -1.153703
v 1.342158 0.292893 -0.910471
v 0.870215 0.000000 -1.507257
v 0.729785 0.000000 -1.264025
v 0.257842 0.292893 -1.860810
v 0.117412 0.292893 -1.617578
v 0.004189 1.000000 -2.007257
v -0.136240 1.000000 -1.764025
v 0.257842 1.707107 -1.860810
v 0.117412 1.707107 -1.617578
v 0.870215 2.000000 -1.507257
v 0.729785 2.000000 -1.264025
v 1.482588 1.707107 -1.153703
v 1.342158 1.707107 -0.910471
v 0.252168 0.600000 -1.592158
v 0.252168 1.100727 -1.592158
v 1.252765 0.600000 -1.014463
v 1.252765 1.100727 -1.014463
v -1.252765 0.600000 1.014463
v -1.252765 1.100727 1.014463
v -0.252168 0.600000 1.592158
v -0.252168 1.100727 1.592158
vn -0.1759 -0.9645 0.1969
vn -0.3997 -0.7061 0.5845
vn -0.5290 -0.2584 0.8083
vn -0.5290 0.2584 0.8083
vn -0.3997 0.7061 0.5845
vn -0.1759 0.9645 0.1969
vn 0.0825 0.9645 -0.2508
vn 0.3063 0.7061 -0.6384
vn 0.4356 0.2584 -0.8623
vn 0.4356 -0.2584 -0.8623
vn -0.7036 0.2487 0.6656
vn 0.3063 -0.7061 -0.6384
vn 0.0825 -0.9645 -0.2508
vn -0.2218 -0.6994 0.6795
vn -0.1487 -0.2424 0.9587
vn -0.1152 -0.9282 -0.3537
vn -0.3639 -0.9282 0.0771
vn -0.7036 -0.2487 0.6656
vn 0.1002 -0.6795 -0.7268
vn -0.5793 -0.6795 0.4502
vn 0.2246 -0.2487 -0.9422
vn 0.2246 0.2487 -0.9422
vn 0.1002 0.6795 -0.7268
vn -0.1152 0.9282 -0.3537
vn -0.3639 0.9282 0.0771
vn -0.5793 0.6795 0.4502
vn 0.8660 -0.0000 0.5000
vn 0.7559 -0.2424 -0.6081
vn 0.4248 0.9046 -0.0346
vn -0.1487 0.2424 0.9587
vn 0.6347 -0.6622 -0.3982
vn 0.1824 -0.9046 0.3852
vn 0.6347 0.6622 -0.3982
vn -0.0275 0.6622 0.7488
vn 0.4248 -0.9046 -0.0346
vn -0.0275 -0.6622 0.7488
vn 0.7559 0.2424 -0.6081
vn 0.1824 0.9046 0.3852
vn -0.4136 0.9095 0.0426
vn 0.6056 -0.2560 -0.7535
vn 0.6056 0.2560 -0.7535
vn 0.4776 0.6994 -0.5318
vn 0.2559 0.9553 -0.1478
vn -0.0001 0.9553 0.2955
vn -0.2218 0.6994 0.6795
vn -0.3498 0.2560 0.9012
vn 0.2559 -0.9553 -0.1478
vn -0.0001 -0.9553 0.2955
vn -0.3498 -0.2560 0.9012
vn 0.4776 -0.6994 -0.5318
vn -0.7464 -0.2437 0.6192
vn 0.1630 -0.2437 -0.9561
vn -0.1699 0.9095 -0.3795
vn -0.7464 0.2437 0.6192
vn 0.0412 -0.6658 -0.7450
vn -0.4136 -0.9095 0.0426
vn 0.0412 0.6658 -0.7450
vn -0.6246 0.6658 0.4082
vn -0.1699 -0.9095 -0.3795
vn -0.6246 -0.6658 0.4082
vn 0.1630 0.2437 -0.9561
vn -0.8660 -0.0000 -0.5000
vn 0.8001 -0.3827 0.4619
vn 0.3314 -0.9239 0.1913
vn -0.3314 -0.9239 -0.1913
vn -0.8001 -0.3827 -0.4619
vn -0.8001 0.3827 -0.4619
vn -0.3314 0.9239 -0.1913
vn -0.5000 -0.0000 0.8660
vn 0.3314 0.9239 0.1913
vn 0.8001 0.3827 0.4619
vn 0.5000 -0.0000 -0.8660
vn -0.0000 -1.0000 -0.0000
vn -0.0000 1.0000 -0.0000
vt 1.000000 0.500000
vt 0.000000 0.500000
vt 0.000000 1.000000
vt 1.000000 1.000000
vt 0.916667 0.500000
vt 0.916667 1.000000
vt 0.833333 0.500000
vt 0.833333 1.000000
vt 0.750000 0.500000
vt 0.750000 1.000000
vt 0.666667 0.500000
vt 0.666667 1.000000
vt 0.583333 0.500000
vt 0.583333 1.000000
vt 0.500000 0.500000
vt 0.500000 1.000000
vt 0.416667 0.500000
vt 0.416667 1.000000
vt 0.333333 0.500000
vt 0.333333 1.000000
vt 0.250000 0.500000
vt 0.250000 1.000000
vt 0.166667 0.500000
vt 0.166667 1.000000
vt 0.083333 0.500000
vt 0.083333 1.000000
vt 0.000000 1.000000
vt 1.000000 1.000000
vt 0.916667 1.000000
vt 0.833333 1.000000
vt 0.750000 1.000000
vt 0.666667 1.000000
vt 0.583333 1.000000
vt 0.500000 1.000000
vt 0.416667 1.000000
vt 0.333333 1.000000
vt 0.250000 1.000000
vt 0.166667 1.000000
vt 0.083333 1.000000
vt 0.250000 0.490000
vt 1.000000 1.000000
vt 0.000000 1.000000
vt 0.370000 0.457846
vt 0.916667 1.000000
vt 0.833333 1.000000
vt 0.457846 0.370000
vt 0.490000 0.250000
vt 0.750000 1.000000
vt 0.457846 0.130000
vt 0.666667 1.000000
vt 0.370000 0.042154
vt 0.583333 1.000000
vt 0.250000 0.010000
vt 0.500000 1.000000
vt 0.130000 0.042154
vt 0.416667 1.000000
vt 0.042154 0.130000
vt 0.333333 1.000000
vt 0.010000 0.250000
vt 0.250000 1.000000
vt 0.042154 0.370000
vt 0.166667 1.000000
vt 0.130000 0.457846
vt 0.083333 1.000000
vt 1.000000 0.500000
vt 0.000000 0.500000
vt 0.916667 0.500000
vt 0.833333 0.500000
vt 0.750000 0.500000
vt 0.666667 0.500000
vt 0.583333 0.500000
vt 0.500000 0.500000
vt 0.416667 0.500000
vt 0.333333 0.500000
vt 0.250000 0.500000
vt 0.166667 0.500000
vt 0.083333 0.500000
vt 0.750000 0.356635
vt 0.803317 0.342348
vt 0.842348 0.303317
vt 0.856635 0.250000
vt 0.842348 0.196683
vt 0.803317 0.157652
vt 0.750000 0.143365
vt 0.696683 0.157652
vt 0.657652 0.196683
vt 0.643365 0.250000
vt 0.657652 0.303317
vt 0.696683 0.342348
vt 1.000000 0.500000
vt 0.000000 0.500000
vt 0.750000 0.490000
vt 0.916667 0.500000
vt 0.870000 0.457846
vt 0.833333 0.500000
vt 0.957846 0.370000
vt 0.750000 0.500000
vt 0.990000 0.250000
vt 0.666667 0.500000
vt 0.957846 0.130000
vt 0.583333 0.500000
vt 0.870000 0.042154
vt 0.500000 0.500000
vt 0.750000 0.010000
vt 0.416667 0.500000
vt 0.630000 0.042154
vt 0.333333 0.500000
vt 0.542154 0.130000
vt 0.250000 0.500000
vt 0.510000 0.250000
vt 0.166667 0.500000
vt 0.542154 0.370000
vt 0.083333 0.500000
vt 0.630000 0.457846
vt 1.000000 0.500000
vt 0.000000 0.500000
vt 0.750000 0.490000
vt 1.000000 1.000000
vt 0.250000 0.490000
vt 0.000000 1.000000
vt 0.875000 0.500000
vt 0.919706 0.419706
vt 0.875000 1.000000
vt 0.419706 0.419706
vt 0.750000 0.500000
vt 0.990000 0.250000
vt 0.750000 1.000000
vt 0.490000 0.250000
vt 0.625000 0.500000
vt 0.919706 0.080294
vt 0.625000 1.000000
vt 0.419706 0.080294
vt 0.500000 0.500000
vt 0.750000 0.010000
vt 0.500000 1.000000
vt 0.250000 0.010000
vt 0.375000 0.500000
vt 0.580294 0.080294
vt 0.375000 1.000000
vt 0.080294 0.080294
vt 0.250000 0.500000
vt 0.510000 0.250000
vt 0.010000 0.250000
vt 0.250000 1.000000
vt 0.125000 0.500000
vt 0.580294 0.419706
vt 0.080294 0.419706
vt 0.125000 1.000000
vt 1.000000 0.500000
vt 0.000000 0.500000
vt 0.750000 0.490000
vt 1.000000 1.000000
vt 0.250000 0.490000
vt 0.000000 1.000000
vt 0.875000 0.500000
vt 0.919706 0.419706
vt 0.875000 1.000000
vt 0.419706 0.419706
vt 0.750000 0.500000
vt 0.990000 0.250000
vt 0.750000 1.000000
vt 0.490000 0.250000
vt 0.625000 0.500000
vt 0.919706 0.080294
vt 0.625000 1.000000
vt 0.419706 0.080294
vt 0.500000 0.500000
vt 0.750000 0.010000
vt 0.500000 1.000000
vt 0.250000 0.010000
vt 0.375000 0.500000
vt 0.580294 0.080294
vt 0.375000 1.000000
vt 0.080294 0.080294
vt 0.250000 0.500000
vt 0.510000 0.250000
vt 0.010000 0.250000
vt 0.250000 1.000000
vt 0.125000 0.500000
vt 0.580294 0.419706
vt 0.080294 0.419706
vt 0.125000 1.000000
vt 0.375000 0.000000
vt 0.375000 1.000000
vt 0.125000 0.750000
vt 0.625000 0.000000
vt 0.625000 1.000000
vt 0.875000 0.750000
vt 0.375000 0.250000
vt 0.125000 0.500000
vt 0.625000 0.250000
vt 0.875000 0.500000
vt 0.375000 0.750000
vt 0.625000 0.750000
vt 0.375000 0.500000
vt 0.625000 0.500000
s 0
f 2/4/1 3/5/1 1/1/1
f 4/6/2 5/7/2 3/5/2
f 6/8/3 7/9/3 5/7/3
f 8/10/4 9/11/4 7/9/4
f 10/12/5 11/13/5 9/11/5
f 12/14/6 13/15/6 11/13/6
f 14/16/7 15/17/7 13/15/7
f 16/18/8 17/19/8 15/17/8
f 18/20/9 19/21/9 17/19/9
f 20/22/10 21/23/10 19/21/10
f 8/10/11 29/32/11 10/12/11
f 22/24/12 23/25/12 21/23/12
f 24/26/13 1/2/13 23/25/13
f 5/7/14 50/67/14 3/5/14
f 27/30/15 40/48/15 28/31/15
f 2/3/16 36/39/16 25/27/16
f 2/4/17 26/29/17 4/6/17
f 8/10/18 27/30/18 28/31/18
f 22/24/19 36/39/19 24/26/19
f 4/6/20 27/30/20 6/8/20
f 20/22/21 35/38/21 22/24/21
f 20/22/22 33/36/22 34/37/22
f 16/18/23 33/36/23 18/20/23
f 14/16/24 32/35/24 16/18/24
f 14/16/25 30/33/25 31/34/25
f 10/12/26 30/33/26 12/14/26
f 43/53/27 41/49/27 39/46/27
f 34/37/28 47/62/28 35/38/28
f 31/34/29 44/56/29 32/35/29
f 28/31/30 41/50/30 29/32/30
f 35/38/31 48/64/31 36/39/31
f 26/29/32 37/41/32 38/44/32
f 32/35/33 45/58/33 33/36/33
f 29/32/34 42/52/34 30/33/34
f 36/39/35 37/42/35 25/27/35
f 27/30/36 38/44/36 39/45/36
f 33/36/37 46/60/37 34/37/37
f 30/33/38 43/54/38 31/34/38
f 55/72/39 78/101/39 54/71/39
f 21/23/40 58/75/40 19/21/40
f 19/21/41 57/74/41 17/19/41
f 17/19/42 56/73/42 15/17/42
f 15/17/43 55/72/43 13/15/43
f 13/15/44 54/71/44 11/13/44
f 9/11/45 54/71/45 53/70/45
f 9/11/46 52/69/46 7/9/46
f 1/2/47 60/77/47 23/25/47
f 3/5/48 49/65/48 1/1/48
f 7/9/49 51/68/49 5/7/49
f 23/25/50 59/76/50 21/23/50
f 51/68/51 76/97/51 75/95/51
f 59/76/52 82/109/52 58/75/52
f 56/73/53 79/103/53 55/72/53
f 53/70/54 76/97/54 52/69/54
f 59/76/55 84/113/55 83/111/55
f 50/67/56 73/90/56 49/65/56
f 57/74/57 80/105/57 56/73/57
f 54/71/58 77/99/58 53/70/58
f 60/77/59 73/91/59 84/113/59
f 51/68/60 74/93/60 50/67/60
f 57/74/61 82/109/61 81/107/61
f 61/78/62 74/94/62 62/79/62
f 63/80/62 74/94/62 75/96/62
f 63/80/62 76/98/62 64/81/62
f 64/81/62 77/100/62 65/82/62
f 66/83/62 77/100/62 78/102/62
f 67/84/62 78/102/62 79/104/62
f 67/84/62 80/106/62 68/85/62
f 68/85/62 81/108/62 69/86/62
f 70/87/62 81/108/62 82/110/62
f 70/87/62 83/112/62 71/88/62
f 71/88/62 84/114/62 72/89/62
f 61/78/62 84/114/62 73/92/62
f 86/118/63 87/121/63 85/115/63
f 88/123/64 89/125/64 87/121/64
f 89/125/65 92/131/65 91/129/65
f 91/129/66 94/135/66 93/133/66
f 93/133/67 96/139/67 95/137/67
f 95/137/68 98/144/68 97/141/68
f 86/119/69 98/143/69 94/136/69
f 98/144/70 99/145/70 97/141/70
f 100/148/71 85/116/71 99/145/71
f 91/130/72 95/138/72 99/146/72
f 102/152/63 103/155/63 101/149/63
f 104/157/64 105/159/64 103/155/64
f 105/159/65 108/165/65 107/163/65
f 107/163/66 110/169/66 109/167/66
f 109/167/67 112/173/67 111/171/67
f 111/171/68 114/178/68 113/175/68
f 106/162/69 102/153/69 114/177/69
f 114/178/70 115/179/70 113/175/70
f 116/182/71 101/150/71 115/179/71
f 107/164/72 111/172/72 115/180/72
f 117/183/72 120/191/72 119/189/72
f 120/191/27 123/195/27 119/189/27
f 124/196/69 121/193/69 123/195/69
f 122/194/62 117/184/62 121/193/62
f 123/195/73 117/185/73 119/190/73
f 120/192/74 122/194/74 124/196/74
f 2/4/1 4/6/1 3/5/1
f 4/6/2 6/8/2 5/7/2
f 6/8/3 8/10/3 7/9/3
f 8/10/4 10/12/4 9/11/4
f 10/12/5 12/14/5 11/13/5
f 12/14/6 14/16/6 13/15/6
f 14/16/7 16/18/7 15/17/7
f 16/18/8 18/20/8 17/19/8
f 18/20/9 20/22/9 19/21/9
f 20/22/10 22/24/10 21/23/10
f 8/10/11 28/31/11 29/32/11
f 22/24/12 24/26/12 23/25/12
f 24/26/13 2/3/13 1/2/13
f 5/7/14 51/68/14 50/67/14
f 27/30/15 39/45/15 40/48/15
f 2/3/16 24/26/16 36/39/16
f 2/4/17 25/28/17 26/29/17
f 8/10/18 6/8/18 27/30/18
f 22/24/19 35/38/19 36/39/19
f 4/6/20 26/29/20 27/30/20
f 20/22/21 34/37/21 35/38/21
f 20/22/22 18/20/22 33/36/22
f 16/18/23 32/35/23 33/36/23
f 14/16/24 31/34/24 32/35/24
f 14/16/25 12/14/25 30/33/25
f 10/12/26 29/32/26 30/33/26
f 39/46/27 38/43/27 37/40/27
f 37/40/27 48/63/27 47/61/27
f 47/61/27 46/59/27 45/57/27
f 45/57/27 44/55/27 43/53/27
f 43/53/27 42/51/27 41/49/27
f 41/49/27 40/47/27 39/46/27
f 39/46/27 37/40/27 43/53/27
f 37/40/27 47/61/27 43/53/27
f 47/61/27 45/57/27 43/53/27
f 34/37/28 46/60/28 47/62/28
f 31/34/29 43/54/29 44/56/29
f 28/31/30 40/48/30 41/50/30
f 35/38/31 47/62/31 48/64/31
f 26/29/32 25/28/32 37/41/32
f 32/35/33 44/56/33 45/58/33
f 29/32/34 41/50/34 42/52/34
f 36/39/35 48/64/35 37/42/35
f 27/30/36 26/29/36 38/44/36
f 33/36/37 45/58/37 46/60/37
f 30/33/38 42/52/38 43/54/38
f 55/72/39 79/103/39 78/101/39
f 21/23/40 59/76/40 58/75/40
f 19/21/41 58/75/41 57/74/41
f 17/19/42 57/74/42 56/73/42
f 15/17/43 56/73/43 55/72/43
f 13/15/44 55/72/44 54/71/44
f 9/11/45 11/13/45 54/71/45
f 9/11/46 53/70/46 52/69/46
f 1/2/47 49/66/47 60/77/47
f 3/5/48 50/67/48 49/65/48
f 7/9/49 52/69/49 51/68/49
f 23/25/50 60/77/50 59/76/50
f 51/68/51 52/69/51 76/97/51
f 59/76/52 83/111/52 82/109/52
f 56/73/53 80/105/53 79/103/53
f 53/70/54 77/99/54 76/97/54
f 59/76/55 60/77/55 84/113/55
f 50/67/56 74/93/56 73/90/56
f 57/74/57 81/107/57 80/105/57
f 54/71/58 78/101/58 77/99/58
f 60/77/59 49/66/59 73/91/59
f 51/68/60 75/95/60 74/93/60
f 57/74/61 58/75/61 82/109/61
f 61/78/62 73/92/62 74/94/62
f 63/80/62 62/79/62 74/94/62
f 63/80/62 75/96/62 76/98/62
f 64/81/62 76/98/62 77/100/62
f 66/83/62 65/82/62 77/100/62
f 67/84/62 66/83/62 78/102/62
f 67/84/62 79/104/62 80/106/62
f 68/85/62 80/106/62 81/108/62
f 70/87/62 69/86/62 81/108/62
f 70/87/62 82/110/62 83/112/62
f 71/88/62 83/112/62 84/114/62
f 61/78/62 72/89/62 84/114/62
f 86/118/63 88/123/63 87/121/63
f 88/123/64 90/127/64 89/125/64
f 89/125/65 90/127/65 92/131/65
f 91/129/66 92/131/66 94/135/66
f 93/133/67 94/135/67 96/139/67
f 95/137/68 96/139/68 98/144/68
f 90/128/69 88/124/69 86/119/69
f 86/119/69 100/147/69 98/143/69
f 98/143/69 96/140/69 94/136/69
f 94/136/69 92/132/69 90/128/69
f 90/128/69 86/119/69 94/136/69
f 98/144/70 100/148/70 99/145/70
f 100/148/71 86/120/71 85/116/71
f 99/146/72 85/117/72 87/122/72
f 87/122/72 89/126/72 91/130/72
f 91/130/72 93/134/72 95/138/72
f 95/138/72 97/142/72 99/146/72
f 99/146/72 87/122/72 91/130/72
f 102/152/63 104/157/63 103/155/63
f 104/157/64 106/161/64 105/159/64
f 105/159/65 106/161/65 108/165/65
f 107/163/66 108/165/66 110/169/66
f 109/167/67 110/169/67 112/173/67
f 111/171/68 112/173/68 114/178/68
f 106/162/69 104/158/69 102/153/69
f 102/153/69 116/181/69 114/177/69
f 114/177/69 112/174/69 110/170/69
f 110/170/69 108/166/69 114/177/69
f 108/166/69 106/162/69 114/177/69
f 114/178/70 116/182/70 115/179/70
f 116/182/71 102/154/71 101/150/71
f 115/180/72 101/151/72 103/156/72
f 103/156/72 105/160/72 107/164/72
f 107/164/72 109/168/72 111/172/72
f 111/172/72 113/176/72 115/180/72
f 115/180/72 103/156/72 107/164/72
f 117/183/72 118/186/72 120/191/72
f 120/191/27 124/196/27 123/195/27
f 124/196/69 122/194/69 121/193/69
f 122/194/62 118/187/62 117/184/62
f 123/195/73 121/193/73 117/185/73
f 120/192/74 118/188/74 122/194/74
